<svg width="43" height="43" viewBox="0 0 43 43" fill="none" xmlns="http://www.w3.org/2000/svg">
<g clip-path="url(#clip0_59_1133)">
<path d="M8.73438 6.82755L9.5937 9.40621H12.7656V8.06246H10.5625L8.73438 2.57861L6.59378 8.99905L5.79022 7.39058H3.35938V8.73433H4.95978L6.84372 12.5009L8.73438 6.82755Z" fill="#ff4335"/>
<path d="M38.9688 32.25C40.8211 32.25 42.3281 30.743 42.3281 28.8906V11.4219C42.3281 9.78922 41.1564 8.428 39.6097 8.127C39.2993 4.33561 36.12 1.34375 32.25 1.34375C28.4015 1.34375 25.2343 4.30134 24.8936 8.0625H15.4531C15.4531 3.98758 12.1374 0.671875 8.0625 0.671875C3.98758 0.671875 0.671875 3.98758 0.671875 8.0625C0.671875 10.3926 1.77509 12.5688 3.60394 13.9548C2.63241 14.8169 2.01562 16.0706 2.01562 17.4688V18.8118V19.4837V21.2816C2.01562 23.9483 3.6167 26.3227 6.04688 27.3379V29.2245C3.64492 30.573 2.01562 33.1423 2.01562 36.0871V42.3281H17.372V42.3127C18.0687 42.2764 18.7453 42.1192 19.3836 41.8289L24.85 39.3443C25.063 39.2476 25.2551 39.1199 25.4251 38.9688H28.2188C29.0935 38.9688 29.8326 38.405 30.1108 37.625H40.3125C41.4238 37.625 42.3281 36.7207 42.3281 35.6094C42.3281 34.4981 41.4238 33.5938 40.3125 33.5938H36.2812C35.9104 33.5938 35.6094 33.2928 35.6094 32.9219V32.25H38.9688ZM38.9688 30.9062H15.781C14.6543 29.6297 13.1305 28.7213 11.4219 28.3766V27.389C11.7571 27.2768 12.0662 27.1034 12.3383 26.875H40.9844V28.8906C40.9844 30.0019 40.08 30.9062 38.9688 30.9062ZM26.875 33.5938H25.6898C24.3131 33.5938 23.0037 34.232 22.1719 35.2573V32.25H27.5469V33.6616C27.3299 33.6173 27.1048 33.5938 26.875 33.5938ZM18.0157 37.3717L17.673 34.9745C17.5326 33.9935 17.2094 33.0757 16.7438 32.25H20.8281V36.0931L18.0157 37.3717ZM9.14959 18.14L9.63603 17.1677C9.75025 16.9386 9.9807 16.7962 10.2374 16.7962H14.1094C14.4803 16.7962 14.7812 17.0979 14.7812 17.4681C14.7812 17.8383 14.4803 18.14 14.1094 18.14H9.14959ZM32.25 2.6875C35.5845 2.6875 38.2969 5.40053 38.2969 8.73438C38.2969 12.0682 35.5845 14.7812 32.25 14.7812C28.9155 14.7812 26.2031 12.0682 26.2031 8.73438C26.2031 5.40053 28.9155 2.6875 32.25 2.6875ZM24.8936 9.40625C25.2343 13.1674 28.4015 16.125 32.25 16.125C36.0609 16.125 39.2059 13.2252 39.5983 9.51711C40.4005 9.78317 40.9844 10.5316 40.9844 11.4219V25.5312H13.2198C13.3219 25.1866 13.3703 24.8238 13.3327 24.4549L12.8355 19.4837H14.1094C15.2207 19.4837 16.125 18.5794 16.125 17.4681C16.125 16.3568 15.2207 15.4525 14.1094 15.4525H12.6978C12.6044 14.9956 12.4089 14.5783 12.1502 14.2088C13.8265 13.0962 14.9559 11.3681 15.3161 9.40625H24.8936ZM2.01562 8.0625C2.01562 4.72866 4.72798 2.01562 8.0625 2.01562C11.397 2.01562 14.1094 4.72866 14.1094 8.0625C14.1094 10.2172 12.9746 12.165 11.1383 13.2534C10.6317 12.9464 10.0412 12.7656 9.40692 12.7656H6.71875C6.04889 12.7656 5.41262 12.9087 4.83548 13.162C3.09331 12.0568 2.01562 10.1386 2.01562 8.0625ZM3.35938 17.4688C3.35938 15.6164 4.86639 14.1094 6.71875 14.1094H9.40692C10.283 14.1094 11.0295 14.6704 11.3063 15.4525H10.2367C9.46806 15.4525 8.77738 15.8791 8.43337 16.5664L7.64661 18.14H3.35938V17.4688ZM3.35938 21.2816V19.4837H5.20098C4.87916 19.9809 4.70312 20.558 4.70312 21.1641C4.70312 21.9811 5.03436 22.7813 5.61284 23.3598L6.04688 23.7938V25.8383C4.41153 24.9293 3.35938 23.2039 3.35938 21.2816ZM6.56287 22.4097C6.235 22.0818 6.04688 21.6277 6.04688 21.1641C6.04688 20.6938 6.22962 20.2517 6.56287 19.9184L6.99758 19.4837H11.4857L11.9963 24.59C12.0407 25.0287 11.8868 25.4607 11.5737 25.7738C11.3009 26.0466 10.922 26.2038 10.5357 26.2038H8.73438V27.5475H10.0781V28.2282C10.013 28.2261 9.94913 28.2188 9.88395 28.2188C9.01186 28.2188 8.17537 28.3672 7.39062 28.6306V23.2375L6.56287 22.4097ZM18.8273 40.6061C18.2757 40.8574 17.6878 40.9844 17.0804 40.9844C15.2005 40.9844 13.5746 39.7743 13.035 37.9744L12.0662 34.7447L10.7789 35.1303L11.7477 38.36C12.0649 39.4182 12.6776 40.3085 13.4671 40.9844H3.35938V36.0871C3.35938 32.4892 6.28606 29.5625 9.88395 29.5625C13.1096 29.5625 15.8865 31.9705 16.342 35.1646L16.7404 37.9509L15.8468 38.3573L16.4032 39.5802L20.3813 37.7715L21.1681 39.5412L18.8273 40.6061ZM24.2943 38.1208L22.3923 38.9855L21.6055 37.2152L23.472 36.3666C23.5956 36.3108 23.7326 36.2812 23.8959 36.2812C24.4267 36.2812 24.8594 36.7139 24.8594 37.2447C24.8594 37.621 24.6377 37.965 24.2943 38.1208ZM28.2188 37.625H26.1682C26.1897 37.5 26.2031 37.3737 26.2031 37.2447C26.2031 36.2658 25.5884 35.4333 24.7143 35.0988C25.0273 34.9973 25.3545 34.9375 25.6898 34.9375H26.875C27.9863 34.9375 28.8906 35.8418 28.8906 36.9531C28.8906 37.324 28.5896 37.625 28.2188 37.625ZM36.2812 34.9375H40.3125C40.6834 34.9375 40.9844 35.2385 40.9844 35.6094C40.9844 35.9803 40.6834 36.2812 40.3125 36.2812H30.1665C30.0006 35.4663 29.5309 34.7675 28.8906 34.2831V32.25H34.2656V32.9219C34.2656 34.0332 35.17 34.9375 36.2812 34.9375Z" fill="#ff4335"/>
<path d="M38.2969 28.2188H39.6406V29.5625H38.2969V28.2188Z" fill="#ff4335"/>
<path d="M32.9219 28.2188H34.2656V29.5625H32.9219V28.2188Z" fill="#ff4335"/>
<path d="M35.6094 28.2188H36.9531V29.5625H35.6094V28.2188Z" fill="#ff4335"/>
<path d="M28.2188 5.375H29.5625V6.71875H28.2188V5.375Z" fill="#ff4335"/>
<path d="M30.9062 5.375H36.2812V6.71875H30.9062V5.375Z" fill="#ff4335"/>
<path d="M28.2188 8.0625H29.5625V9.40625H28.2188V8.0625Z" fill="#ff4335"/>
<path d="M30.9062 8.0625H36.2812V9.40625H30.9062V8.0625Z" fill="#ff4335"/>
<path d="M28.2188 10.75H29.5625V12.0938H28.2188V10.75Z" fill="#ff4335"/>
<path d="M30.9062 10.75H36.2812V12.0938H30.9062V10.75Z" fill="#ff4335"/>
<path d="M24.1875 18.8125H17.4688V24.1875H24.1875V18.8125ZM22.8438 22.8438H18.8125V20.1562H22.8438V22.8438Z" fill="#ff4335"/>
<path d="M17.4688 16.125H24.1875V17.4688H17.4688V16.125Z" fill="#ff4335"/>
<path d="M17.4688 13.4375H24.1875V14.7812H17.4688V13.4375Z" fill="#ff4335"/>
<path d="M17.4688 10.75H24.1875V12.0938H17.4688V10.75Z" fill="#ff4335"/>
<path d="M25.5312 22.8438H26.875V24.1875H25.5312V22.8438Z" fill="#ff4335"/>
<path d="M28.2188 22.8438H39.6406V24.1875H28.2188V22.8438Z" fill="#ff4335"/>
<path d="M25.5312 20.1562H39.6406V21.5H25.5312V20.1562Z" fill="#ff4335"/>
<path d="M25.5312 17.4688H39.6406V18.8125H25.5312V17.4688Z" fill="#ff4335"/>
</g>
<defs>
<clipPath id="clip0_59_1133">
<rect width="43" height="43" fill="white"/>
</clipPath>
</defs>
</svg>
