<svg width="43" height="43" viewBox="0 0 43 43" fill="none" xmlns="http://www.w3.org/2000/svg">
<path d="M13.4375 4.70312C13.8086 4.70312 14.1094 4.40232 14.1094 4.03125C14.1094 3.66018 13.8086 3.35938 13.4375 3.35938C13.0664 3.35938 12.7656 3.66018 12.7656 4.03125C12.7656 4.40232 13.0664 4.70312 13.4375 4.70312Z" fill="#FF4057"/>
<path d="M15.4531 3.35938H24.8594V4.70312H15.4531V3.35938Z" fill="#FF4057"/>
<path d="M20.8281 8.73438H27.5469V10.0781H20.8281V8.73438Z" fill="#FF4057"/>
<path d="M26.2031 11.4219H27.5469V12.7656H26.2031V11.4219Z" fill="#FF4057"/>
<path d="M20.8281 11.4219H24.8594V12.7656H20.8281V11.4219Z" fill="#FF4057"/>
<path d="M20.8281 14.1094H27.5469V15.4531H20.8281V14.1094Z" fill="#FF4057"/>
<path d="M20.8281 16.7969H27.5469V18.1406H20.8281V16.7969Z" fill="#FF4057"/>
<path d="M42.3281 42.1716V29.2266L39.5224 27.1222L38.6583 24.9622C38.352 24.1969 37.9018 23.5143 37.3193 22.9324L32.9219 18.5343V4.03125C32.9219 2.17889 31.4149 0.671875 29.5625 0.671875H8.0625C6.21014 0.671875 4.70312 2.17889 4.70312 4.03125V19.7652L2.84875 21.6196C1.44453 23.0238 0.671875 24.8903 0.671875 26.875C0.671875 27.2822 0.706141 27.6933 0.772656 28.0965L1.81809 34.3664C1.96322 35.2378 2.20308 36.0945 2.53095 36.9135L3.35938 38.9862V42.3281H12.7656V39.0984L13.2292 37.9394C13.3589 37.6149 13.4691 37.285 13.5705 36.9531H33.6314L42.3281 42.1716ZM40.9844 39.7972L32.6619 34.8038L39.0319 28.4338L40.9844 29.8984V39.7972ZM37.4107 25.4614L38.1806 27.385L31.341 34.2253L28.4801 33.8168C27.6161 33.6932 26.8051 33.3324 26.1339 32.7734L24.7693 31.6366C24.0162 31.009 23.1212 30.5824 22.1725 30.3768V30.2344H20.8987H20.7986C20.4438 30.2344 20.1562 29.9468 20.1562 29.5934C20.1562 29.3791 20.2631 29.1795 20.4418 29.0599L20.6924 28.8926C21.3535 28.4519 22.1235 28.2188 22.9183 28.2188C23.9906 28.2188 24.9985 28.636 25.7563 29.3945L26.4 30.0375L27.35 29.0875L26.707 28.4445L17.6891 19.4266C17.5474 19.2842 17.4688 19.0954 17.4688 18.8938C17.4688 18.4786 17.8067 18.1406 18.2219 18.1406C18.4235 18.1406 18.6123 18.2192 18.7547 18.361L24.1297 23.736L27.0719 26.6781L28.0219 25.7281L25.0798 22.786C24.94 22.6455 24.8594 22.4514 24.8594 22.2532C24.8594 21.838 25.1973 21.5 25.6125 21.5C25.8141 21.5 26.0029 21.5786 26.1453 21.7204L29.0875 24.6625L30.0375 23.7125L27.0954 20.7703C26.9536 20.6279 26.875 20.4391 26.875 20.2375C26.875 19.8223 27.213 19.4844 27.6282 19.4844C27.8297 19.4844 28.0185 19.563 28.161 19.7048L29.5047 21.0485L31.1031 22.6469L32.0531 21.6969L30.4548 20.0985C30.313 19.956 30.2344 19.7672 30.2344 19.5657C30.2344 19.1505 30.5723 18.8125 30.9875 18.8125C31.1891 18.8125 31.3779 18.8911 31.5203 19.0329L36.3699 23.8825C36.8228 24.3353 37.1728 24.8661 37.4107 25.4614ZM20.7972 31.5781H20.8281V32.9219H16.7969V31.5781H20.7972ZM13.5947 26.2031H16.7969V22.1719H12.7656V24.0659C12.3706 23.7259 11.8613 23.5156 11.3077 23.5156C10.275 23.5156 9.3787 24.2157 9.12809 25.2175L8.73438 26.7924V7.39062H28.8906V18.5733C28.5278 18.2972 28.0918 18.1406 27.6282 18.1406C26.4967 18.1406 25.5783 19.0423 25.5386 20.1636C24.7169 20.1932 24.0155 20.6924 23.6984 21.4046L19.7048 17.411C19.6362 17.3424 19.5596 17.2873 19.4844 17.2296V8.73438H10.0781V18.1406H16.2708C16.1801 18.3751 16.125 18.6277 16.125 18.8938C16.125 19.098 16.1633 19.2942 16.2191 19.4844H10.0781V20.8281H17.1906L18.5343 22.1719H18.1406V26.2031H22.1719V25.8094L23.2536 26.8911C23.1421 26.8844 23.0312 26.875 22.9183 26.875C22.0126 26.875 21.1372 27.1142 20.3491 27.5469H13.6975L13.5947 26.2031ZM14.1094 24.8594V23.5156H15.4531V24.8594H14.1094ZM14.1094 10.0781H15.4531V11.4219H14.1094V10.0781ZM16.7969 12.7656V10.0781H18.1406V16.7969H11.4219V10.0781H12.7656V12.7656H16.7969ZM19.4844 23.5156H19.8781L20.8281 24.4657V24.8594H19.4844V23.5156ZM6.04688 4.03125C6.04688 2.91997 6.95122 2.01562 8.0625 2.01562H29.5625C30.6738 2.01562 31.5781 2.91997 31.5781 4.03125V17.5628C31.388 17.507 31.1918 17.4688 30.9875 17.4688C30.7215 17.4688 30.4689 17.5238 30.2344 17.6145V6.04688H7.39062V30.7101C7.30597 30.8935 7.22467 31.0796 7.13397 31.2603C7.03655 31.4565 6.83969 31.5781 6.62066 31.5781C6.3042 31.5781 6.04688 31.3201 6.04688 31.0043V4.03125ZM11.4219 40.9844H4.70312V39.6406H11.4219V40.9844ZM11.9815 37.4409L11.6389 38.2969H4.53113L3.77863 36.4143C3.48703 35.6853 3.27338 34.922 3.1437 34.146L2.09827 27.8761C2.04384 27.5455 2.01562 27.2089 2.01562 26.875C2.01562 25.2491 2.64853 23.7205 3.79878 22.5703L4.70312 21.666V31.0043C4.70312 32.0619 5.56313 32.9219 6.62066 32.9219C7.35166 32.9219 8.00875 32.5161 8.33595 31.8617C9.02127 30.4917 9.55608 29.0438 9.9283 27.5576L10.4322 25.5433C10.5323 25.1409 10.8924 24.8594 11.3077 24.8594C11.7766 24.8594 12.1724 25.2255 12.208 25.6932L12.734 32.5275C12.7549 32.807 12.7656 33.0878 12.7656 33.3687C12.7656 34.7695 12.5016 36.1395 11.9815 37.4409ZM13.9004 35.6094C14.0368 34.8737 14.1094 34.1252 14.1094 33.3687C14.1094 33.0536 14.0973 32.7385 14.0731 32.4247L13.8017 28.8906H18.9563C18.8716 29.1137 18.8125 29.3475 18.8125 29.5934C18.8125 29.8192 18.8582 30.0321 18.9281 30.2344H15.4531V34.2656H22.1719V31.7723C22.8028 31.951 23.3994 32.244 23.9087 32.6686L25.2733 33.8054C26.1353 34.5236 27.178 34.9879 28.2893 35.1465L31.3483 35.5832L31.392 35.6094H13.9004Z" fill="#FF4057"/>
</svg>
