<svg width="43" height="43" viewBox="0 0 43 43" fill="none" xmlns="http://www.w3.org/2000/svg">
<path d="M40.9844 20.8281H39.6406V10.0781H32.9219V20.8281H28.8906V18.1406H24.8594V12.7656H15.3745L14.7026 7.39062H8.14111L7.46923 12.7656H6.04688V28.8906H2.01562V31.5781H0.671875V42.3281H42.3281V28.8906H40.9844V20.8281ZM39.6406 22.1719V23.5156H22.1719V22.1719H39.6406ZM36.9531 28.8906H35.6094V27.5469H36.9531V28.8906ZM38.1766 30.2344L35.6094 34.3422L33.0421 30.2344H38.1766ZM38.2969 38.6422L36.4015 35.6094L38.2969 32.5765V38.6422ZM32.9219 32.5765L34.8172 35.6094L32.9219 38.6422V32.5765ZM31.5781 28.8906H30.2344V27.5469H31.5781V28.8906ZM28.8906 38.6422L26.9953 35.6094L28.8906 32.5765V38.6422ZM26.2031 34.3422L23.6359 30.2344H28.7704L26.2031 34.3422ZM23.5156 32.5765L25.411 35.6094L23.5156 38.6422V32.5765ZM26.2031 28.8906H24.8594V27.5469H26.2031V28.8906ZM26.2031 36.8765L28.7704 40.9844H23.6359L26.2031 36.8765ZM30.2344 30.2344H31.5781V40.9844H30.2344V30.2344ZM35.6094 36.8765L38.1766 40.9844H33.0421L35.6094 36.8765ZM38.2969 28.8906V26.2031H34.2656V28.8906H32.9219V26.2031H28.8906V28.8906H27.5469V26.2031H23.5156V28.8906H22.1719V24.8594H39.6406V28.8906H38.2969ZM38.2969 11.4219V12.7656H34.2656V11.4219H38.2969ZM34.2656 14.1094H38.2969V20.8281H34.2656V14.1094ZM27.5469 20.8281H23.5156V19.4844H27.5469V20.8281ZM10.0781 28.8906V27.5469H12.7656V28.8906H10.0781ZM12.7656 26.2031H10.0781V24.8594H12.7656V26.2031ZM12.7656 23.5156H10.0781V22.1719H12.7656V23.5156ZM12.7656 20.8281H10.0781V19.4844H12.7656V20.8281ZM12.7656 18.1406H10.0781V16.7969H12.7656V18.1406ZM12.7656 15.4531H10.0781V14.1094H12.7656V15.4531ZM9.32764 8.73438H13.5161L14.02 12.7656H8.82306L9.32764 8.73438ZM7.39062 14.1094H8.73438V28.8906H7.39062V14.1094ZM16.7969 30.2344V31.5781H3.35938V30.2344H16.7969ZM6.04688 40.9844H4.70312V35.6094H6.04688V40.9844ZM11.4219 40.9844H10.0781V35.6094H11.4219V40.9844ZM16.7969 40.9844H15.4531V35.6094H16.7969V40.9844ZM19.4844 40.9844H18.1406V34.2656H14.1094V40.9844H12.7656V34.2656H8.73438V40.9844H7.39062V34.2656H3.35938V40.9844H2.01562V32.9219H2.6875H3.35938H16.7969H17.4688H19.4844V40.9844ZM19.4844 31.5781H18.1406V28.8906H14.1094V14.1094H23.5156V18.1406H22.1719V20.8281H20.8281V28.8906H19.4844V31.5781ZM20.8281 30.2344H22.1719V40.9844H20.8281V30.2344ZM40.9844 40.9844H39.6406V30.2344H40.9844V40.9844Z" fill="#ff4335"/>
<path d="M13.4375 5.375C13.4375 5.0048 13.7385 4.70312 14.1094 4.70312H20.1562C21.2675 4.70312 22.1719 3.79878 22.1719 2.6875C22.1719 1.57622 21.2675 0.671875 20.1562 0.671875H14.7812V2.01562H20.1562C20.5271 2.01562 20.8281 2.3173 20.8281 2.6875C20.8281 3.0577 20.5271 3.35938 20.1562 3.35938H14.1094C12.9981 3.35938 12.0938 4.26372 12.0938 5.375V6.04688H13.4375V5.375Z" fill="#ff4335"/>
<path d="M4.70312 4.70312H8.73438C9.10525 4.70312 9.40625 5.0048 9.40625 5.375V6.04688H10.75V5.375C10.75 4.26372 9.84566 3.35938 8.73438 3.35938H4.70312C4.33225 3.35938 4.03125 3.0577 4.03125 2.6875C4.03125 2.3173 4.33225 2.01562 4.70312 2.01562H10.75V0.671875H4.70312C3.59184 0.671875 2.6875 1.57622 2.6875 2.6875C2.6875 3.79878 3.59184 4.70312 4.70312 4.70312Z" fill="#ff4335"/>
<path d="M37.625 2.6875V3.35938H39.6406C40.3817 3.35938 40.9844 3.96205 40.9844 4.70312C40.9844 5.4442 40.3817 6.04688 39.6406 6.04688H38.9688C37.8575 6.04688 36.9531 6.95122 36.9531 8.0625V8.73438H38.2969V8.0625C38.2969 7.6923 38.5979 7.39062 38.9688 7.39062H39.6406C41.1228 7.39062 42.3281 6.18528 42.3281 4.70312C42.3281 3.22097 41.1228 2.01562 39.6406 2.01562H38.8539C38.5764 1.23356 37.8293 0.671875 36.9531 0.671875H34.2656V2.01562H36.9531C37.324 2.01562 37.625 2.3173 37.625 2.6875Z" fill="#ff4335"/>
<path d="M29.5625 7.39062H33.5938C33.9646 7.39062 34.2656 7.6923 34.2656 8.0625V8.73438H35.6094V8.0625C35.6094 6.95122 34.705 6.04688 33.5938 6.04688H29.5625C29.1916 6.04688 28.8906 5.7452 28.8906 5.375C28.8906 5.0048 29.1916 4.70312 29.5625 4.70312H34.9375V3.35938H29.5625C28.4512 3.35938 27.5469 4.26372 27.5469 5.375C27.5469 6.48628 28.4512 7.39062 29.5625 7.39062Z" fill="#ff4335"/>
</svg>
