<svg width="17" height="16" viewBox="0 0 17 16" fill="none" xmlns="http://www.w3.org/2000/svg">
<path d="M10.2933 13.1282L8.33325 16L6.37325 13.1282H1.13325C0.921079 13.1282 0.717596 13.0418 0.567566 12.8879C0.417537 12.734 0.333252 12.5253 0.333252 12.3077V0.820513C0.333252 0.602899 0.417537 0.394199 0.567566 0.240323C0.717596 0.0864466 0.921079 0 1.13325 0H15.5333C15.7454 0 15.9489 0.0864466 16.0989 0.240323C16.249 0.394199 16.3333 0.602899 16.3333 0.820513V12.3077C16.3333 12.5253 16.249 12.734 16.0989 12.8879C15.9489 13.0418 15.7454 13.1282 15.5333 13.1282H10.2933ZM9.46045 11.4872H14.7333V1.64103H1.93325V11.4872H7.20605L8.33325 13.1381L9.46045 11.4872Z" fill="#FFAA17"/>
</svg>
