<svg width="35" height="35" viewBox="0 0 35 35" fill="none" xmlns="http://www.w3.org/2000/svg">
<path d="M30.7461 7.35422L30.2809 6.88897L24.1891 0.797155L23.7238 0.331897C23.5132 0.121293 23.2211 0 22.9224 0H5.40914C4.69346 0 3.92285 0.552759 3.92285 1.76569V23.5345V33.5137V33.7931C3.92285 34.2982 4.43096 34.7906 5.03199 34.9457C5.06216 34.9535 5.09113 34.965 5.12251 34.971C5.21664 34.9897 5.31259 35 5.40914 35H29.5917C29.6883 35 29.7842 34.9897 29.8784 34.971C29.9097 34.965 29.9387 34.9535 29.9689 34.9457C30.5699 34.7906 31.078 34.2982 31.078 33.7931V33.5137V23.5345V8.435C31.078 7.97216 31.0225 7.6306 30.7461 7.35422ZM28.9267 7.24138H23.8366V2.15129L28.9267 7.24138ZM5.40914 33.7931C5.3663 33.7931 5.32768 33.7774 5.28966 33.7635C5.19552 33.7189 5.12975 33.6247 5.12975 33.5137V24.7414H29.8711V33.5137C29.8711 33.6247 29.8054 33.7183 29.7112 33.7635C29.6732 33.7774 29.6346 33.7931 29.5917 33.7931H5.40914ZM5.12975 23.5345V1.76569C5.12975 1.63474 5.14966 1.2069 5.40914 1.2069H22.6647C22.6448 1.28293 22.6297 1.36138 22.6297 1.44284V8.44828H29.6352C29.7166 8.44828 29.7945 8.43319 29.8705 8.41328C29.8705 8.42233 29.8711 8.42595 29.8711 8.435V23.5345H5.12975Z" fill="#FF4057"/>
<path d="M13.3019 27.0007C13.101 26.8359 12.8741 26.7116 12.6212 26.6296C12.3684 26.5469 12.1125 26.5059 11.8543 26.5059H10.1055V32.5862H11.0957V30.3915H11.8301C12.1487 30.3915 12.4408 30.345 12.7045 30.2515C12.9682 30.1579 13.1939 30.0258 13.381 29.8556C13.5681 29.6854 13.7135 29.4748 13.8185 29.2244C13.9229 28.974 13.9754 28.6952 13.9754 28.3868C13.9754 28.0953 13.9132 27.8328 13.7895 27.5987C13.6658 27.3646 13.5029 27.166 13.3019 27.0007ZM12.9266 29.0096C12.8656 29.1773 12.7866 29.3077 12.6876 29.4012C12.5887 29.4947 12.48 29.5623 12.3618 29.6034C12.2435 29.6444 12.1234 29.6655 12.0027 29.6655H11.0951V27.2565H11.8374C12.0902 27.2565 12.2936 27.2964 12.4481 27.376C12.6019 27.4557 12.7214 27.5547 12.8071 27.6729C12.8922 27.7912 12.9483 27.9149 12.9761 28.044C13.0032 28.1732 13.0171 28.2872 13.0171 28.3862C13.0171 28.6342 12.9869 28.8418 12.9266 29.0096Z" fill="#FF4057"/>
<path d="M19.2834 27.3966C19.0275 27.1274 18.7059 26.9108 18.3179 26.749C17.9299 26.5873 17.4803 26.5059 16.9692 26.5059H15.1377V32.5862H17.4392C17.5159 32.5862 17.6342 32.5765 17.7941 32.5572C17.9534 32.5379 18.1296 32.4945 18.3221 32.4251C18.5146 32.3563 18.7137 32.2531 18.9201 32.1155C19.1265 31.9779 19.3117 31.7897 19.4771 31.5501C19.6424 31.3105 19.7782 31.0136 19.8856 30.6588C19.993 30.304 20.0467 29.8761 20.0467 29.3759C20.0467 29.0126 19.9834 28.659 19.8573 28.3156C19.7299 27.9728 19.5392 27.6663 19.2834 27.3966ZM18.5617 31.2164C18.2648 31.6454 17.7808 31.8597 17.1098 31.8597H16.128V27.2559H16.7055C17.1786 27.2559 17.5636 27.3181 17.8605 27.4418C18.1574 27.5655 18.3927 27.7278 18.5659 27.9288C18.7391 28.1297 18.8555 28.3536 18.9165 28.601C18.9768 28.8484 19.007 29.0989 19.007 29.3517C19.007 30.1658 18.8586 30.7879 18.5617 31.2164Z" fill="#FF4057"/>
<path d="M21.4824 32.5862H22.489V29.8472H25.0301V29.1707H22.489V27.2565H25.2854V26.5059H21.4824V32.5862Z" fill="#FF4057"/>
<path d="M23.1901 13.8557C22.6355 13.8557 21.9548 13.9281 21.1637 14.0717C20.0594 12.8998 18.9068 11.1884 18.0934 9.50842C18.9002 6.11161 18.4965 5.63067 18.3185 5.40377C18.129 5.16239 17.8616 4.77075 17.5575 4.77075C17.4302 4.77075 17.0826 4.82868 16.9444 4.87455C16.5968 4.99041 16.4098 5.25834 16.2601 5.60773C15.8335 6.60523 16.4188 8.30575 17.021 9.61644C16.5063 11.6639 15.6428 14.1145 14.7352 16.1035C12.4481 17.1511 11.2334 18.18 11.1235 19.1618C11.0837 19.519 11.1682 20.0434 11.7964 20.5147C11.9684 20.6433 12.1699 20.7114 12.3799 20.7114C12.9079 20.7114 13.4414 20.3071 14.0587 19.44C14.5089 18.8076 14.9923 17.9452 15.4967 16.8747C17.1128 16.1681 19.112 15.5296 20.824 15.1718C21.7774 16.0872 22.6313 16.5507 23.3651 16.5507C23.9058 16.5507 24.3692 16.302 24.7048 15.832C25.0541 15.3426 25.1338 14.9045 24.9401 14.5285C24.7078 14.0765 24.1351 13.8557 23.1901 13.8557ZM12.3932 19.6928C12.1108 19.4762 12.1271 19.3301 12.1331 19.2752C12.1705 18.9397 12.6961 18.3441 13.9857 17.6194C13.0081 19.4249 12.4831 19.6645 12.3932 19.6928ZM17.3415 5.86058C17.3674 5.85213 17.9721 6.52498 17.3994 7.80127C16.5389 6.92084 17.2823 5.88049 17.3415 5.86058ZM16.0941 15.5314C16.7066 14.0717 17.2763 12.4599 17.7078 10.967C18.3854 12.1847 19.1995 13.3663 20.0141 14.3125C18.7264 14.6148 17.3554 15.0414 16.0941 15.5314ZM23.8792 15.2424C23.6934 15.5025 23.2903 15.5085 23.1491 15.5085C22.8274 15.5085 22.7073 15.3172 22.2155 14.9389C22.621 14.887 23.0036 14.8737 23.3084 14.8737C23.8448 14.8737 23.9432 14.9527 24.0174 14.9926C24.0041 15.0354 23.9691 15.1163 23.8792 15.2424Z" fill="#FF4057"/>
</svg>
