<svg width="36" height="36" viewBox="0 0 36 36" fill="none" xmlns="http://www.w3.org/2000/svg">
<path d="M28.2153 11.8433L19.9493 9.63903C19.8541 9.61365 19.754 9.61365 19.6589 9.63903L11.3929 11.8433C11.0504 11.9347 10.8203 12.2343 10.8203 12.5887C10.8203 12.9432 11.0504 13.2428 11.393 13.3341L15.0316 14.3043V16.7974C15.0316 17.4398 15.5542 17.9623 16.1965 17.9623H23.4115C24.0539 17.9623 24.5765 17.4398 24.5765 16.7974V14.3044L25.8489 13.9651L25.8541 17.3995C25.8545 17.7105 26.1069 17.9623 26.4178 17.9623C26.4181 17.9623 26.4184 17.9623 26.4187 17.9623C26.73 17.9619 26.982 17.7091 26.9816 17.3978L26.9759 13.6646L28.2153 13.3341C28.5578 13.2427 28.788 12.9432 28.788 12.5887C28.788 12.2344 28.5578 11.9347 28.2153 11.8433ZM23.4491 16.7975C23.4491 16.8183 23.4323 16.8351 23.4116 16.8351H16.1965C16.1758 16.8351 16.159 16.8183 16.159 16.7975V14.6051L19.6588 15.5383C19.7064 15.551 19.7552 15.5573 19.8041 15.5573C19.8529 15.5573 19.9017 15.551 19.9493 15.5383L23.4491 14.6051V16.7975ZM19.804 14.4103L12.9728 12.5887L19.804 10.7671L26.6352 12.5887L19.804 14.4103Z" fill="#FF4057"/>
<path d="M26.4172 19.7662C26.7285 19.7662 26.9809 19.5138 26.9809 19.2025C26.9809 18.8912 26.7285 18.6388 26.4172 18.6388C26.1059 18.6388 25.8535 18.8912 25.8535 19.2025C25.8535 19.5138 26.1059 19.7662 26.4172 19.7662Z" fill="#FF4057"/>
<path d="M32.8282 6.17759L26.8156 0.165023C26.71 0.0593437 26.5666 0 26.4171 0H8.37956C7.40566 0 6.61338 0.792281 6.61338 1.76618V22.2463H4.77204C3.79814 22.2463 3.00586 23.0386 3.00586 24.0125V30.025C3.00586 30.9989 3.79814 31.7912 4.77204 31.7912H6.61338V34.2337C6.61338 35.2076 7.40566 35.9999 8.37956 35.9999H31.2272C32.2011 35.9999 32.9934 35.2076 32.9934 34.2337V6.57619C32.9933 6.42663 32.934 6.28334 32.8282 6.17759ZM26.9808 1.92445L31.0688 6.01249H27.6196C27.2673 6.01249 26.9807 5.7259 26.9807 5.37363V1.92445H26.9808ZM4.77204 30.6639C4.41977 30.6639 4.13318 30.3773 4.13318 30.0251V24.0126C4.13318 23.6603 4.41977 23.3737 4.77204 23.3737H21.0059C21.3581 23.3737 21.6447 23.6603 21.6447 24.0126V30.0251C21.6447 30.3773 21.3581 30.6639 21.0059 30.6639H4.77204ZM31.866 34.2338C31.866 34.5861 31.5794 34.8727 31.2271 34.8727H8.37956C8.0273 34.8727 7.7407 34.5861 7.7407 34.2338V31.7912H21.0059C21.9798 31.7912 22.772 30.999 22.772 30.0251V24.0126C22.772 23.0387 21.9798 22.2464 21.0059 22.2464H7.7407V1.76618C7.7407 1.41391 8.0273 1.12732 8.37956 1.12732H25.8535V5.3737C25.8535 6.3476 26.6458 7.13988 27.6197 7.13988H31.866V34.2338H31.866Z" fill="#FF4057"/>
<path d="M7.77855 24.6514H5.97483C5.66355 24.6514 5.41113 24.9037 5.41113 25.2151V28.8226C5.41113 29.1339 5.66348 29.3863 5.97483 29.3863H7.77855C9.08398 29.3863 10.146 28.3242 10.146 27.0189C10.146 25.7134 9.08398 24.6514 7.77855 24.6514ZM7.77855 28.2589H6.53852V25.7787H7.77862C8.46241 25.7787 9.01873 26.335 9.01873 27.0188C9.01873 27.7026 8.46234 28.2589 7.77855 28.2589Z" fill="#FF4057"/>
<path d="M13.1897 24.6514C11.8843 24.6514 10.8223 25.7134 10.8223 27.0188C10.8223 28.3242 11.8843 29.3862 13.1897 29.3862C14.495 29.3862 15.5571 28.3241 15.5571 27.0188C15.5571 25.7134 14.495 24.6514 13.1897 24.6514ZM13.1897 28.2589C12.5059 28.2589 11.9496 27.7026 11.9496 27.0188C11.9496 26.335 12.5059 25.7787 13.1897 25.7787C13.8735 25.7787 14.4298 26.335 14.4298 27.0188C14.4298 27.7026 13.8735 28.2589 13.1897 28.2589Z" fill="#FF4057"/>
<path d="M20.3213 27.8014C20.0893 27.5937 19.7329 27.6135 19.5254 27.8454C19.2902 28.1082 18.9532 28.2589 18.601 28.2589C17.9172 28.2589 17.3609 27.7026 17.3609 27.0188C17.3609 26.335 17.9172 25.7787 18.601 25.7787C18.9539 25.7787 19.2913 25.9299 19.5264 26.1934C19.7337 26.4256 20.0901 26.4458 20.3222 26.2385C20.5545 26.0313 20.5746 25.6748 20.3674 25.4427C19.9185 24.9398 19.2746 24.6514 18.6008 24.6514C17.2954 24.6514 16.2334 25.7134 16.2334 27.0188C16.2334 28.3242 17.2955 29.3862 18.6008 29.3862C19.2734 29.3862 19.9165 29.0986 20.3652 28.5972C20.573 28.3652 20.5533 28.0089 20.3213 27.8014Z" fill="#FF4057"/>
</svg>
