<svg width="81" height="81" viewBox="0 0 81 81" fill="none" xmlns="http://www.w3.org/2000/svg">
<g clip-path="url(#clip0_99_1830)">
<path d="M6.75 27C6.75 24.3147 7.81674 21.7393 9.71554 19.8405C11.6143 17.9417 14.1897 16.875 16.875 16.875H23.625C26.3103 16.875 28.8857 17.9417 30.7845 19.8405C32.6833 21.7393 33.75 24.3147 33.75 27V30.375C33.75 50.625 26.9055 64.125 10.125 64.125C23.625 50.7533 20.25 43.875 20.25 43.875H16.875C14.1897 43.875 11.6143 42.8083 9.71554 40.9095C7.81674 39.0107 6.75 36.4353 6.75 33.75L6.75 27Z" stroke="#FF4057" stroke-opacity="0.19" stroke-width="1.5" stroke-miterlimit="10" stroke-linejoin="round"/>
<path d="M47.25 27C47.25 24.3147 48.3167 21.7393 50.2155 19.8405C52.1143 17.9417 54.6897 16.875 57.375 16.875H64.125C66.8103 16.875 69.3857 17.9417 71.2845 19.8405C73.1833 21.7393 74.25 24.3147 74.25 27V30.375C74.25 50.625 67.4055 64.125 50.625 64.125C64.125 50.7533 60.75 43.875 60.75 43.875H57.375C54.6897 43.875 52.1143 42.8083 50.2155 40.9095C48.3167 39.0107 47.25 36.4353 47.25 33.75V27Z" stroke="#FF4057" stroke-opacity="0.19" stroke-width="1.5" stroke-miterlimit="10" stroke-linejoin="round"/>
</g>
<defs>
<clipPath id="clip0_99_1830">
<rect width="81" height="81" fill="white"/>
</clipPath>
</defs>
</svg>
