<svg width="103" height="83" viewBox="0 0 103 83" fill="none" xmlns="http://www.w3.org/2000/svg">
<path d="M1 18.17C1 13.6162 2.80898 9.24898 6.02898 6.02898C9.24898 2.80898 13.6162 1 18.17 1L29.6167 1C34.1704 1 38.5377 2.80898 41.7577 6.02898C44.9777 9.24898 46.7867 13.6162 46.7867 18.17V23.8933C46.7867 58.2333 35.1797 81.1267 6.72333 81.1267C29.6167 58.4508 23.8933 46.7867 23.8933 46.7867H18.17C13.6162 46.7867 9.24898 44.9777 6.02898 41.7577C2.80898 38.5377 1 34.1704 1 29.6167L1 18.17Z" stroke="#FF4057" stroke-opacity="0.15" stroke-width="1.5" stroke-miterlimit="10" stroke-linejoin="round"/>
<path d="M56.2133 18.6189C56.2133 14.0651 58.0222 9.69783 61.2422 6.47783C64.4622 3.25783 68.8295 1.44885 73.3833 1.44885L84.8299 1.44885C89.3837 1.44885 93.7509 3.25783 96.9709 6.47783C100.191 9.69783 102 14.0651 102 18.6189V24.3422C102 58.6822 90.393 81.5755 61.9366 81.5755C84.8299 58.8997 79.1066 47.2355 79.1066 47.2355H73.3833C68.8295 47.2355 64.4622 45.4265 61.2422 42.2065C58.0222 38.9865 56.2133 34.6193 56.2133 30.0655V18.6189Z" stroke="#FF4057" stroke-opacity="0.15" stroke-width="1.5" stroke-miterlimit="10" stroke-linejoin="round"/>
</svg>
