<svg width="25" height="25" viewBox="0 0 25 25" fill="none" xmlns="http://www.w3.org/2000/svg">
<g clip-path="url(#clip0_24_2859)">
<path d="M16.5234 15.4219C18.0859 13.5753 18.874 11.1962 18.7232 8.78197C18.5724 6.36776 17.4943 4.10527 15.7142 2.46743C13.9342 0.829598 11.5899 -0.056814 9.17152 -0.00651568C6.75312 0.0437827 4.44776 1.0269 2.73733 2.73733C1.0269 4.44776 0.0437827 6.75312 -0.00651568 9.17152C-0.056814 11.5899 0.829598 13.9342 2.46743 15.7142C4.10527 17.4943 6.36776 18.5724 8.78197 18.7232C11.1962 18.874 13.5753 18.0859 15.4219 16.5234L23.6641 24.7734L24.7656 23.6719L16.5234 15.4219ZM9.37501 17.1875C7.82984 17.1875 6.31937 16.7293 5.03461 15.8709C3.74986 15.0124 2.74851 13.7923 2.1572 12.3647C1.56589 10.9372 1.41117 9.36634 1.71262 7.85086C2.01407 6.33539 2.75814 4.94333 3.85074 3.85074C4.94333 2.75814 6.33539 2.01407 7.85086 1.71262C9.36634 1.41117 10.9372 1.56589 12.3647 2.1572C13.7923 2.74851 15.0124 3.74986 15.8709 5.03461C16.7293 6.31937 17.1875 7.82984 17.1875 9.37501C17.1875 11.447 16.3644 13.4342 14.8993 14.8993C13.4342 16.3644 11.447 17.1875 9.37501 17.1875Z" fill="black"/>
<path d="M3.90625 9.375H5.46875C5.46875 8.339 5.8803 7.34543 6.61286 6.61286C7.34543 5.8803 8.339 5.46875 9.375 5.46875V3.90625C7.9246 3.90625 6.5336 4.48242 5.50801 5.50801C4.48242 6.5336 3.90625 7.9246 3.90625 9.375Z" fill="black"/>
</g>
<defs>
<clipPath id="clip0_24_2859">
<rect width="25" height="25" fill="white"/>
</clipPath>
</defs>
</svg>
