<svg width="40" height="40" viewBox="0 0 40 40" fill="none" xmlns="http://www.w3.org/2000/svg">
<g clip-path="url(#clip0_99_1782)">
<path d="M28.125 8.125H34.375C35.4087 8.125 36.25 7.28375 36.25 6.25V4.375H38.125V1.875H39.375V0.625H0.625V1.875H1.875V4.375H3.75V6.25C3.75 6.59438 3.47 6.875 3.125 6.875H2.5C1.46625 6.875 0.625 7.71625 0.625 8.75C0.625 9.78375 1.46625 10.625 2.5 10.625H8.75C9.095 10.625 9.375 10.9056 9.375 11.25C9.375 11.5944 9.095 11.875 8.75 11.875H2.5C1.46625 11.875 0.625 12.7163 0.625 13.75V26.25C0.625 27.2838 1.46625 28.125 2.5 28.125H3.21375C3.4525 29.0431 4.1925 29.7606 5.12875 29.95C5.59375 32.0931 7.27437 33.7494 9.375 34.2287V36.25C9.375 37.9731 10.7769 39.375 12.5 39.375H21.25C22.9731 39.375 24.375 37.9731 24.375 36.25V19.9513C24.375 18.9975 23.9475 18.1075 23.2025 17.5112L21.25 15.9494V13.125H17.5V4.375H19.375V1.875H33.125V4.375H35V6.25C35 6.59438 34.72 6.875 34.375 6.875H28.125C27.0912 6.875 26.25 7.71625 26.25 8.75C26.25 9.78375 27.0912 10.625 28.125 10.625H37.5C37.845 10.625 38.125 10.9056 38.125 11.25C38.125 11.5944 37.845 11.875 37.5 11.875H33.75C32.7163 11.875 31.875 12.7163 31.875 13.75V20.7137C30.9569 20.9525 30.2394 21.6925 30.05 22.6287C27.495 23.1838 25.625 25.4631 25.625 28.125C25.625 29.6338 26.7006 30.8962 28.125 31.1869V31.25C28.125 32.2838 28.9662 33.125 30 33.125H35C36.0337 33.125 36.875 32.2838 36.875 31.25V31.1869C38.2994 30.8962 39.375 29.6344 39.375 28.125C39.375 25.4631 37.505 23.1838 34.95 22.6294C34.7606 21.6925 34.0431 20.9525 33.125 20.7137V13.75C33.125 13.4056 33.405 13.125 33.75 13.125H37.5C38.5337 13.125 39.375 12.2837 39.375 11.25C39.375 10.2163 38.5337 9.375 37.5 9.375H28.125C27.78 9.375 27.5 9.09437 27.5 8.75C27.5 8.40562 27.78 8.125 28.125 8.125ZM3.125 1.875H5.625V3.125H3.125V1.875ZM4.375 27.5C4.375 26.8106 4.93563 26.25 5.625 26.25C6.31437 26.25 6.875 26.8106 6.875 27.5C6.875 28.1894 6.31437 28.75 5.625 28.75C4.93563 28.75 4.375 28.1894 4.375 27.5ZM6.3975 29.8656C7.39687 29.5375 8.125 28.6075 8.125 27.5C8.125 26.3944 7.39937 25.4656 6.40312 25.1362C6.79063 23.6575 7.91563 22.4894 9.375 22.0569V32.94C7.93062 32.5087 6.78813 31.3494 6.3975 29.8656ZM21.25 38.125H12.5C11.4663 38.125 10.625 37.2837 10.625 36.25V34.375C12.0037 34.375 13.125 33.2537 13.125 31.875V31.25H11.875V31.875C11.875 32.5644 11.3144 33.125 10.625 33.125V26.9394C11.7163 27.1381 12.7906 27.8119 13.9169 28.5244C15.4713 29.5094 17.2331 30.625 19.375 30.625C20.9894 30.625 22.265 30.375 23.125 29.9194V36.25C23.125 37.2837 22.2838 38.125 21.25 38.125ZM16.0806 28.3744C16.7738 27.6037 17.8363 26.875 19.375 26.875C21.5481 26.875 23.125 27.4006 23.125 28.125C23.125 28.8494 21.5481 29.375 19.375 29.375C18.1856 29.375 17.1069 28.9419 16.0806 28.3744ZM23.125 19.9513V26.33C22.265 25.875 20.9894 25.625 19.375 25.625C17.26 25.625 15.8588 26.6794 14.9888 27.7238C14.8538 27.6388 14.7188 27.5538 14.585 27.4688C13.3337 26.6769 12.0456 25.8619 10.625 25.6681V19.9513C10.625 19.3787 10.8812 18.845 11.3287 18.4869L13.3444 16.875H15V21.25H16.25V16.875H17.5V22.5H18.75V16.875H20.4056L22.4212 18.4875C22.8687 18.845 23.125 19.3787 23.125 19.9513ZM20 15.625H13.75V14.375H20V15.625ZM16.25 13.125H12.5V15.9494L10.5475 17.5112C9.8025 18.1081 9.375 18.9975 9.375 19.9513V20.7669C7.24937 21.2481 5.59125 22.9175 5.12937 25.05C4.1925 25.2394 3.4525 25.9569 3.21375 26.875H2.5C2.155 26.875 1.875 26.595 1.875 26.25V13.75C1.875 13.4056 2.155 13.125 2.5 13.125H8.75C9.78375 13.125 10.625 12.2837 10.625 11.25C10.625 10.2163 9.78375 9.375 8.75 9.375H2.5C2.155 9.375 1.875 9.09437 1.875 8.75C1.875 8.40562 2.155 8.125 2.5 8.125H3.125C4.15875 8.125 5 7.28375 5 6.25V4.375H6.875V1.875H14.375V4.375H16.25V13.125ZM18.125 3.125H15.625V1.875H18.125V3.125ZM34.375 1.875H36.875V3.125H34.375V1.875ZM26.875 28.125C26.875 26.1187 28.2425 24.395 30.1344 23.8975C30.3975 24.7006 31.0506 25.3219 31.875 25.5363V28.125H30C29.0044 28.125 28.1956 28.9075 28.1363 29.8881C27.4044 29.6325 26.875 28.9431 26.875 28.125ZM35.625 31.25C35.625 31.595 35.345 31.875 35 31.875H30C29.655 31.875 29.375 31.595 29.375 31.25V30C29.375 29.655 29.655 29.375 30 29.375H35C35.345 29.375 35.625 29.655 35.625 30V31.25ZM34.865 23.8975C36.7581 24.3956 38.125 26.1187 38.125 28.125C38.125 28.9431 37.5956 29.6325 36.8638 29.8881C36.8044 28.9075 35.9956 28.125 35 28.125H33.125V25.5363C33.9494 25.3219 34.6019 24.7013 34.865 23.8975ZM33.75 23.125C33.75 23.8144 33.1894 24.375 32.5 24.375C31.8106 24.375 31.25 23.8144 31.25 23.125C31.25 22.4356 31.8106 21.875 32.5 21.875C33.1894 21.875 33.75 22.4356 33.75 23.125Z" fill="#FF4057"/>
<path d="M15 33.125C13.9662 33.125 13.125 33.9662 13.125 35C13.125 36.0338 13.9662 36.875 15 36.875C16.0338 36.875 16.875 36.0338 16.875 35C16.875 33.9662 16.0338 33.125 15 33.125ZM15 35.625C14.655 35.625 14.375 35.345 14.375 35C14.375 34.655 14.655 34.375 15 34.375C15.345 34.375 15.625 34.655 15.625 35C15.625 35.345 15.345 35.625 15 35.625Z" fill="#FF4057"/>
<path d="M20 31.25C18.9662 31.25 18.125 32.0912 18.125 33.125C18.125 34.1588 18.9662 35 20 35C21.0338 35 21.875 34.1588 21.875 33.125C21.875 32.0912 21.0338 31.25 20 31.25ZM20 33.75C19.655 33.75 19.375 33.47 19.375 33.125C19.375 32.78 19.655 32.5 20 32.5C20.345 32.5 20.625 32.78 20.625 33.125C20.625 33.47 20.345 33.75 20 33.75Z" fill="#FF4057"/>
</g>
<defs>
<clipPath id="clip0_99_1782">
<rect width="40" height="40" fill="white"/>
</clipPath>
</defs>
</svg>
