<svg width="41" height="41" viewBox="0 0 41 41" fill="none" xmlns="http://www.w3.org/2000/svg">
<g clip-path="url(#clip0_56_975)">
<path d="M20.5 28.8281C25.092 28.8281 28.8281 25.092 28.8281 20.5C28.8281 15.908 25.092 12.1719 20.5 12.1719C15.908 12.1719 12.1719 15.908 12.1719 20.5C12.1719 25.092 15.908 28.8281 20.5 28.8281ZM20.5 13.4531C21.1887 13.4531 21.9222 14.4314 22.4276 16.0156H18.5724C19.0778 14.4314 19.8113 13.4531 20.5 13.4531ZM22.7544 17.2969C22.9107 18.0714 23.0157 18.9324 23.049 19.8594H17.951C17.9843 18.9324 18.09 18.0714 18.2456 17.2969H22.7544ZM27.5142 19.8594H24.3297C24.3002 18.9503 24.2118 18.0893 24.0676 17.2969H26.7692C27.1702 18.0791 27.4316 18.9433 27.5142 19.8594ZM20.5 27.5469C19.8113 27.5469 19.0778 26.5686 18.5724 24.9844H22.4276C21.9222 26.5686 21.1887 27.5469 20.5 27.5469ZM18.2456 23.7031C18.0893 22.9286 17.9843 22.0676 17.951 21.1406H23.049C23.0157 22.0676 22.91 22.9286 22.7544 23.7031H18.2456ZM24.3297 21.1406H27.5142C27.4309 22.0567 27.1702 22.9209 26.7685 23.7031H24.067C24.2118 22.9107 24.3008 22.0497 24.3297 21.1406ZM16.6703 19.8594H13.4858C13.5691 18.9433 13.8298 18.0791 14.2315 17.2969H16.933C16.7882 18.0893 16.6992 18.9503 16.6703 19.8594ZM16.6703 21.1406C16.6998 22.0497 16.7882 22.9107 16.9324 23.7031H14.2308C13.8298 22.9209 13.5684 22.0567 13.4852 21.1406H16.6703ZM15.0681 24.9844H17.2296C17.4654 25.814 17.7665 26.536 18.1207 27.1247C16.9202 26.6923 15.867 25.9498 15.0681 24.9844ZM22.8793 27.1247C23.2335 26.536 23.5346 25.814 23.7704 24.9844H25.9319C25.133 25.9498 24.0798 26.6923 22.8793 27.1247ZM25.9319 16.0156H23.7704C23.5346 15.186 23.2335 14.464 22.8793 13.8753C24.0798 14.3077 25.133 15.0502 25.9319 16.0156ZM18.1207 13.8753C17.7665 14.464 17.4654 15.186 17.2296 16.0156H15.0681C15.867 15.0502 16.9202 14.3077 18.1207 13.8753Z" fill="#ff4335"/>
<path d="M33.9531 9.60938H32.6719C32.3189 9.60938 32.0312 9.32237 32.0312 8.96875H30.75C30.75 10.0283 31.6123 10.8906 32.6719 10.8906V12.1719H33.9531V10.8906C35.0127 10.8906 35.875 10.0283 35.875 8.96875C35.875 7.90916 35.0127 7.04688 33.9531 7.04688H32.6719C32.3189 7.04688 32.0312 6.75988 32.0312 6.40625C32.0312 6.05262 32.3189 5.76562 32.6719 5.76562H33.9531C34.3061 5.76562 34.5938 6.05262 34.5938 6.40625H35.875C35.875 5.34666 35.0127 4.48438 33.9531 4.48438V3.20312H32.6719V4.48438C31.6123 4.48438 30.75 5.34666 30.75 6.40625C30.75 7.46584 31.6123 8.32812 32.6719 8.32812H33.9531C34.3061 8.32812 34.5938 8.61513 34.5938 8.96875C34.5938 9.32237 34.3061 9.60938 33.9531 9.60938Z" fill="#ff4335"/>
<path d="M33.3125 14.7344C37.1979 14.7344 40.3594 11.5729 40.3594 7.6875C40.3594 3.80211 37.1979 0.640625 33.3125 0.640625C29.4271 0.640625 26.2656 3.80211 26.2656 7.6875C26.2656 11.5729 29.4271 14.7344 33.3125 14.7344ZM33.3125 1.92188C36.4913 1.92188 39.0781 4.50808 39.0781 7.6875C39.0781 10.8669 36.4913 13.4531 33.3125 13.4531C30.1337 13.4531 27.5469 10.8669 27.5469 7.6875C27.5469 4.50808 30.1337 1.92188 33.3125 1.92188Z" fill="#ff4335"/>
<path d="M35.8154 33.1395C36.2466 32.6808 36.5156 32.0684 36.5156 31.3906V30.9441L37.194 29.9268C37.588 29.3349 37.7969 28.6462 37.7969 27.9345C37.7969 25.9549 36.1857 24.3438 34.2062 24.3438H32.4195C30.4393 24.3438 28.8281 25.9549 28.8281 27.9345C28.8281 28.6455 29.037 29.3349 29.431 29.9262L30.1094 30.9441V31.3906C30.1094 32.0684 30.3784 32.6808 30.8096 33.1395C28.1574 34.1524 26.2656 36.7155 26.2656 39.7188V40.3594H40.3594V39.7188C40.3594 36.7155 38.4676 34.1524 35.8154 33.1395ZM32.4188 25.625H34.2055C35.4797 25.625 36.5156 26.6609 36.5156 27.9345C36.5156 28.2381 36.4509 28.5341 36.3369 28.8115C36.1582 28.4245 35.8526 28.101 35.4535 27.9011L33.3125 26.8307L31.1715 27.9011C30.7724 28.101 30.4668 28.4245 30.2881 28.8115C30.1741 28.5341 30.1094 28.2387 30.1094 27.9345C30.1094 26.6609 31.1453 25.625 32.4188 25.625ZM32.6719 32.6719C31.9653 32.6719 31.3906 32.0972 31.3906 31.3906V29.6199C31.3906 29.3759 31.5264 29.1561 31.7449 29.0466L33.3125 28.2631L34.8801 29.0472C35.0986 29.1568 35.2344 29.3759 35.2344 29.6199V31.3906C35.2344 32.0972 34.6597 32.6719 33.9531 32.6719H32.6719ZM27.5821 39.0781C27.9018 36.1992 30.3496 33.9531 33.3125 33.9531C36.2754 33.9531 38.7232 36.1992 39.0429 39.0781H27.5821Z" fill="#ff4335"/>
<path d="M13.9028 29.5623L11.4377 27.0972L9.95531 27.8384L9.43064 26.2656H5.94436L5.41969 27.8384L3.93728 27.0972L1.47216 29.5623L2.214 31.0453L0.640625 31.5694V35.055L2.214 35.579L1.47216 37.0621L3.93728 39.5272L5.41969 38.786L5.94436 40.3594H9.43L9.95467 38.7866L11.4371 39.5278L13.9022 37.0627L13.1604 35.5797L14.7344 35.0556V31.57L13.161 31.046L13.9028 29.5623ZM13.4531 32.4931V34.1325L11.981 34.6232L11.8733 34.9083C11.8426 34.9897 11.8106 35.0697 11.7753 35.1485L11.651 35.4259L12.3436 36.811L11.1847 37.9698L9.79964 37.2773L9.52225 37.4016C9.44217 37.4375 9.36145 37.4689 9.27945 37.5009L8.99694 37.6092L8.50686 39.0781H6.8675L6.37742 37.6085L6.09491 37.5003C6.01291 37.4682 5.93155 37.4362 5.85211 37.401L5.57472 37.2767L4.18969 37.9692L3.0308 36.8103L3.72331 35.4253L3.59903 35.1479C3.5638 35.0691 3.53177 34.989 3.50102 34.9077L3.39339 34.6226L1.92188 34.1319V32.4925L3.39403 32.0018L3.50166 31.7167C3.53241 31.6353 3.56444 31.5553 3.59967 31.4765L3.72395 31.1991L3.0308 29.8147L4.18969 28.6558L5.57472 29.3483L5.85211 29.224C5.93219 29.1882 6.01291 29.1568 6.09491 29.1247L6.37742 29.0165L6.86814 27.5469H8.5075L8.99758 29.0165L9.28009 29.1247C9.36209 29.1568 9.44345 29.1888 9.52289 29.224L9.80028 29.3483L11.1853 28.6558L12.3442 29.8147L11.6517 31.1997L11.776 31.4771C11.8112 31.5559 11.8432 31.636 11.874 31.7173L11.9816 32.0024L13.4531 32.4931Z" fill="#ff4335"/>
<path d="M7.6875 30.1094C5.9213 30.1094 4.48438 31.5463 4.48438 33.3125C4.48438 35.0787 5.9213 36.5156 7.6875 36.5156C9.4537 36.5156 10.8906 35.0787 10.8906 33.3125C10.8906 31.5463 9.4537 30.1094 7.6875 30.1094ZM7.6875 35.2344C6.62791 35.2344 5.76562 34.3721 5.76562 33.3125C5.76562 32.2529 6.62791 31.3906 7.6875 31.3906C8.74709 31.3906 9.60938 32.2529 9.60938 33.3125C9.60938 34.3721 8.74709 35.2344 7.6875 35.2344Z" fill="#ff4335"/>
<path d="M13.4531 0.640625H0.640625V12.1719H13.4531V0.640625ZM5.76562 1.92188H8.32812V3.20312H5.76562V1.92188ZM12.1719 10.8906H1.92188V1.92188H4.48438V4.48438H9.60938V1.92188H12.1719V10.8906Z" fill="#ff4335"/>
<path d="M32.6719 16.0156H33.9531V23.0625H32.6719V16.0156Z" fill="#ff4335"/>
<path d="M14.7344 7.04688H24.9844V8.32812H14.7344V7.04688Z" fill="#ff4335"/>
<path d="M7.04688 13.4531H8.32812V24.9844H7.04688V13.4531Z" fill="#ff4335"/>
<path d="M16.0156 32.6719H27.5469V33.9531H16.0156V32.6719Z" fill="#ff4335"/>
</g>
<defs>
<clipPath id="clip0_56_975">
<rect width="41" height="41" fill="white"/>
</clipPath>
</defs>
</svg>
