<svg width="44" height="44" viewBox="0 0 44 44" fill="none" xmlns="http://www.w3.org/2000/svg">
<g clip-path="url(#clip0_99_1750)">
<path d="M43.3125 28.1875H29.6863L30.7257 21.9519C31.647 21.8226 32.4473 21.3331 32.9842 20.6229C32.9897 20.6229 32.9945 20.625 33 20.625C37.1697 20.625 40.5625 17.2322 40.5625 13.0625V10.2946C41.3923 9.66625 41.9375 8.68038 41.9375 7.5625V7.45113L41.2149 5.28275L39.9107 5.71794L40.5604 7.66631C40.5054 8.75531 39.6027 9.625 38.5 9.625C37.3973 9.625 36.4946 8.75531 36.4403 7.66631L37.0899 5.71794L35.7857 5.28275L35.0625 7.45113V7.5625C35.0625 8.68106 35.6077 9.66694 36.4375 10.2946V13.1388C36.4375 14.9923 34.9298 16.5 33.077 16.5C33.0474 16.5 33.0172 16.5055 32.9876 16.5062C32.3599 15.6729 31.3713 15.125 30.25 15.125C29.8884 15.125 29.5322 15.191 29.1851 15.3092L28.9733 15.0267C29.7454 14.3956 30.25 13.4482 30.25 12.375V11.6875H30.9375C32.0746 11.6875 33 10.7621 33 9.625V6.875C33 5.73787 32.0746 4.8125 30.9375 4.8125H30.25V4.125C30.25 2.22956 28.7079 0.6875 26.8125 0.6875H17.1875C15.2921 0.6875 13.75 2.22956 13.75 4.125V4.8125H13.0625C11.9254 4.8125 11 5.73787 11 6.875V9.625C11 10.7621 11.9254 11.6875 13.0625 11.6875H13.75V12.375C13.75 13.4482 14.2546 14.3956 15.0274 15.0267L14.8156 15.3092C14.4677 15.191 14.1116 15.125 13.75 15.125C11.8546 15.125 10.3125 16.6671 10.3125 18.5625C10.3125 18.5872 10.3194 18.6106 10.3201 18.6347C9.33969 19.9753 8.25 21.9361 8.25 24.0625C8.25 25.2821 8.74088 26.7527 9.41531 28.1875H0.6875V29.5625H10.1172C10.3812 30.0396 10.6556 30.503 10.9292 30.9375H8.25V43.3125H35.75V30.9375H17.5223C17.0081 30.8186 16.4759 30.8186 15.9617 30.9382C15.8476 30.8117 15.7252 30.6921 15.5815 30.5965C15.3532 30.4446 15.0507 30.0644 14.7242 29.5625H43.3125V28.1875ZM30.9375 6.1875C31.3163 6.1875 31.625 6.49619 31.625 6.875V9.625C31.625 10.0038 31.3163 10.3125 30.9375 10.3125H30.25V6.1875H30.9375ZM13.0625 10.3125C12.6837 10.3125 12.375 10.0038 12.375 9.625V6.875C12.375 6.49619 12.6837 6.1875 13.0625 6.1875H13.75V10.3125H13.0625ZM37.8125 13.1395V10.9306C38.0346 10.9759 38.2649 11 38.5 11C38.7351 11 38.9654 10.9759 39.1875 10.9306V13.0625C39.1875 16.2642 36.7421 18.9056 33.6215 19.2184C33.6628 19.0059 33.6875 18.7873 33.6875 18.5625C33.6875 18.3157 33.6586 18.0758 33.6091 17.8434C35.9707 17.5773 37.8125 15.5705 37.8125 13.1395ZM32.3125 18.5625C32.3125 19.4714 31.7185 20.2352 30.9196 20.5102C30.9279 20.3658 30.9375 20.2221 30.9375 20.0784C30.9375 18.8403 30.6096 17.6124 30.0107 16.5316C30.0905 16.5213 30.1696 16.5 30.25 16.5C31.3871 16.5 32.3125 17.4254 32.3125 18.5625ZM24.0625 2.0625L23.0312 3.4375H20.9688L19.9375 2.0625H24.0625ZM15.125 4.125C15.125 2.98787 16.0504 2.0625 17.1875 2.0625H18.2188L20.2812 4.8125H23.7188L25.7812 2.0625H26.8125C27.9496 2.0625 28.875 2.98787 28.875 4.125V12.375C28.875 13.5121 27.9496 14.4375 26.8125 14.4375H17.1875C16.0504 14.4375 15.125 13.5121 15.125 12.375V4.125ZM26.8125 15.8125H27.8438L28.3779 16.5254C28.3862 16.5364 28.3931 16.5481 28.4006 16.5591L28.4041 16.5639C29.1507 17.5759 29.5625 18.821 29.5625 20.0784C29.5625 20.4029 29.535 20.7302 29.4821 21.0519L28.2927 28.1875H15.7073L14.5179 21.0519C14.465 20.7302 14.4375 20.4029 14.4375 20.0784C14.4375 18.9874 14.7483 17.9059 15.3175 16.9778L15.6276 16.5179L16.1562 15.8125H17.1875H26.8125ZM13.75 16.5C13.8304 16.5 13.9095 16.5213 13.9899 16.5316C13.3904 17.6124 13.0625 18.8396 13.0625 20.0784C13.0625 20.2201 13.0721 20.3624 13.0804 20.504C12.2726 20.2242 11.6875 19.4638 11.6875 18.5625C11.6875 17.4254 12.6129 16.5 13.75 16.5ZM18.1266 32.7442L19.0451 34.5819L19.9375 34.1357V35.0625H21.3125V33.6875H20.1355L19.448 32.3125H34.375V41.9375H9.625V32.3125H11.8532C12.2808 32.9106 12.6589 33.3836 12.9374 33.6875H11.6875V35.0625H13.0625V33.8209C13.1546 33.9144 13.2358 33.99 13.2921 34.0278C13.3038 34.0354 13.3169 34.0409 13.3286 34.0484C13.266 35.0027 13.5843 35.9776 14.3117 36.7056L14.3907 36.7847L16.4354 37.807L17.0507 36.5771L15.213 35.6586C14.4815 34.8501 14.5049 33.5961 15.2845 32.8164C16.0641 32.0361 17.3181 32.0127 18.1266 32.7442ZM14.3124 31.8436C14.0938 32.0623 13.9239 32.3091 13.7761 32.5655C12.6912 31.2565 9.625 26.7726 9.625 24.0625C9.625 22.7164 10.1826 21.4122 10.8267 20.3479C11.0818 20.7646 11.4146 21.1276 11.8174 21.4026C11.2839 22.3623 11 23.2574 11 24.0625C11 25.7565 13.2729 30.3992 14.6286 31.5858C14.5214 31.6697 14.4107 31.7453 14.3124 31.8436ZM12.375 24.0625C12.375 23.4657 12.6321 22.7336 13.0962 21.934C13.1539 21.945 13.2158 21.9436 13.2743 21.9519L14.3137 28.1875H13.9274C13.1154 26.6448 12.375 24.8167 12.375 24.0625Z" fill="#FF4057"/>
<path d="M14.4375 39.1875H15.8125V40.5625H14.4375V39.1875Z" fill="#FF4057"/>
<path d="M11.6875 39.1875H13.0625V40.5625H11.6875V39.1875Z" fill="#FF4057"/>
<path d="M30.9375 39.1875H32.3125V40.5625H30.9375V39.1875Z" fill="#FF4057"/>
<path d="M28.1875 39.1875H29.5625V40.5625H28.1875V39.1875Z" fill="#FF4057"/>
<path d="M22.6875 39.1875H24.0625V40.5625H22.6875V39.1875Z" fill="#FF4057"/>
<path d="M19.9375 39.1875H21.3125V40.5625H19.9375V39.1875Z" fill="#FF4057"/>
<path d="M25.4375 39.1875H26.8125V40.5625H25.4375V39.1875Z" fill="#FF4057"/>
<path d="M17.1875 39.1875H18.5625V40.5625H17.1875V39.1875Z" fill="#FF4057"/>
<path d="M11.6875 36.4375H13.0625V37.8125H11.6875V36.4375Z" fill="#FF4057"/>
<path d="M22.6875 36.4375H24.0625V37.8125H22.6875V36.4375Z" fill="#FF4057"/>
<path d="M17.1875 36.4375H18.5625V37.8125H17.1875V36.4375Z" fill="#FF4057"/>
<path d="M19.9375 36.4375H21.3125V37.8125H19.9375V36.4375Z" fill="#FF4057"/>
<path d="M30.9375 36.4375H32.3125V37.8125H30.9375V36.4375Z" fill="#FF4057"/>
<path d="M28.1875 36.4375H29.5625V37.8125H28.1875V36.4375Z" fill="#FF4057"/>
<path d="M25.4375 36.4375H26.8125V37.8125H25.4375V36.4375Z" fill="#FF4057"/>
<path d="M22.6875 33.6875H24.0625V35.0625H22.6875V33.6875Z" fill="#FF4057"/>
<path d="M25.4375 33.6875H26.8125V35.0625H25.4375V33.6875Z" fill="#FF4057"/>
<path d="M30.9375 33.6875H32.3125V35.0625H30.9375V33.6875Z" fill="#FF4057"/>
<path d="M28.1875 33.6875H29.5625V35.0625H28.1875V33.6875Z" fill="#FF4057"/>
<path d="M25.4375 8.9375C26.5746 8.9375 27.5 8.01213 27.5 6.875C27.5 5.73787 26.5746 4.8125 25.4375 4.8125C24.3004 4.8125 23.375 5.73787 23.375 6.875C23.375 8.01213 24.3004 8.9375 25.4375 8.9375ZM25.4375 6.1875C25.8163 6.1875 26.125 6.49619 26.125 6.875C26.125 7.25381 25.8163 7.5625 25.4375 7.5625C25.0587 7.5625 24.75 7.25381 24.75 6.875C24.75 6.49619 25.0587 6.1875 25.4375 6.1875Z" fill="#FF4057"/>
<path d="M18.5625 8.9375C19.6996 8.9375 20.625 8.01213 20.625 6.875C20.625 5.73787 19.6996 4.8125 18.5625 4.8125C17.4254 4.8125 16.5 5.73787 16.5 6.875C16.5 8.01213 17.4254 8.9375 18.5625 8.9375ZM18.5625 6.1875C18.9413 6.1875 19.25 6.49619 19.25 6.875C19.25 7.25381 18.9413 7.5625 18.5625 7.5625C18.1837 7.5625 17.875 7.25381 17.875 6.875C17.875 6.49619 18.1837 6.1875 18.5625 6.1875Z" fill="#FF4057"/>
<path d="M24.7314 11.6875L19.25 11.6689V10.3125H17.875V11.6689C17.875 12.4369 18.5006 13.0625 19.2686 13.0625H24.7308C25.4994 13.0625 26.125 12.4369 26.125 11.6689V10.3125H24.75L24.7314 11.6875Z" fill="#FF4057"/>
<path d="M15.8125 22C15.8125 23.1371 16.7379 24.0625 17.875 24.0625H26.125C27.2621 24.0625 28.1875 23.1371 28.1875 22V19.25C28.1875 18.1129 27.2621 17.1875 26.125 17.1875H17.875C16.7379 17.1875 15.8125 18.1129 15.8125 19.25V22ZM17.1875 19.25C17.1875 18.8712 17.4962 18.5625 17.875 18.5625H26.125C26.5038 18.5625 26.8125 18.8712 26.8125 19.25V22C26.8125 22.3788 26.5038 22.6875 26.125 22.6875H17.875C17.4962 22.6875 17.1875 22.3788 17.1875 22V19.25Z" fill="#FF4057"/>
<path d="M19.9375 25.4375H21.3125V26.8125H19.9375V25.4375Z" fill="#FF4057"/>
<path d="M17.1875 25.4375H18.5625V26.8125H17.1875V25.4375Z" fill="#FF4057"/>
<path d="M25.4375 25.4375H26.8125V26.8125H25.4375V25.4375Z" fill="#FF4057"/>
<path d="M22.6875 25.4375H24.0625V26.8125H22.6875V25.4375Z" fill="#FF4057"/>
</g>
<defs>
<clipPath id="clip0_99_1750">
<rect width="44" height="44" fill="white"/>
</clipPath>
</defs>
</svg>
