<svg width="44" height="44" viewBox="0 0 44 44" fill="none" xmlns="http://www.w3.org/2000/svg">
<g clip-path="url(#clip0_99_1789)">
<path d="M43.3125 35.75C43.3125 34.8549 42.7357 34.0986 41.9375 33.814V30.9375C41.9375 28.138 39.8338 25.8253 37.125 25.4849V17.875C37.125 15.2213 34.9656 13.0625 32.3125 13.0625H26.7912C26.5629 6.20194 20.9261 0.6875 14.0112 0.6875H13.4888C6.43019 0.6875 0.6875 6.43019 0.6875 13.4894C0.6875 16.478 1.74075 19.3889 3.65406 21.6844L5.96063 24.4523C6.84681 25.5152 7.38787 26.8228 7.52469 28.1909C6.40544 28.2116 5.5 29.1252 5.5 30.25C5.5 31.3871 6.42537 32.3125 7.5625 32.3125V33C7.5625 35.9384 9.62362 38.4003 12.375 39.028V39.875C12.375 41.7704 13.9171 43.3125 15.8125 43.3125H22C23.8954 43.3125 25.4375 41.7704 25.4375 39.875V19.2342C26.1869 17.7416 26.6454 16.1136 26.7706 14.4375H32.3125C34.2079 14.4375 35.75 15.9796 35.75 17.875V25.4849C33.0412 25.8253 30.9375 28.138 30.9375 30.9375V33.814C30.1393 34.0986 29.5625 34.8549 29.5625 35.75C29.5625 36.6451 30.1393 37.4014 30.9375 37.686V41.25C30.9375 42.3871 31.8629 43.3125 33 43.3125C34.1371 43.3125 35.0625 42.3871 35.0625 41.25V37.8125H37.8125V41.25C37.8125 42.3871 38.7379 43.3125 39.875 43.3125C41.0121 43.3125 41.9375 42.3871 41.9375 41.25V37.686C42.7357 37.4014 43.3125 36.6451 43.3125 35.75ZM4.8125 20.9261V11.6875H11.6875V18.5625H7.5625V24.3162C7.39406 24.0604 7.216 23.8095 7.018 23.5723L4.8125 20.9261ZM10.3125 10.3125H6.1875V8.9375H10.3125V10.3125ZM22.6875 11.6875V20.9261L20.482 23.5723C20.284 23.8095 20.1059 24.0597 19.9375 24.3162V18.5625H15.8125V11.6875H22.6875ZM18.5625 19.9375V28.1875H8.9375V19.9375H18.5625ZM6.875 30.25C6.875 29.8712 7.183 29.5625 7.5625 29.5625H19.9375C20.317 29.5625 20.625 29.8712 20.625 30.25C20.625 30.6288 20.317 30.9375 19.9375 30.9375H7.5625C7.183 30.9375 6.875 30.6288 6.875 30.25ZM8.9375 33V32.3125H18.5625V33C18.5625 35.6538 16.4031 37.8125 13.75 37.8125C11.0969 37.8125 8.9375 35.6538 8.9375 33ZM24.0625 39.875C24.0625 41.0121 23.1371 41.9375 22 41.9375H15.8125C14.6754 41.9375 13.75 41.0121 13.75 39.875V39.1875C17.1621 39.1875 19.9375 36.4114 19.9375 33V32.3125C21.0746 32.3125 22 31.3871 22 30.25C22 29.1252 21.0946 28.2116 19.9746 28.1909C20.1114 26.8228 20.6532 25.5152 21.5387 24.4523L23.8452 21.6844C23.9216 21.5923 23.9883 21.4933 24.0618 21.3998V39.875H24.0625ZM24.0625 18.9021V10.3125H22.6875V7.5625H21.3125V10.3125H19.9375V6.1875H18.5625V10.3125H17.1875V7.5625H15.8125V10.3125H14.4375V18.5625H13.0625V10.3125H11.6875V7.5625H4.8125V10.3125H3.4375V18.9021C2.54719 17.2466 2.0625 15.3876 2.0625 13.4888C2.0625 7.1885 7.1885 2.0625 13.4888 2.0625H14.0112C20.3115 2.0625 25.4375 7.1885 25.4375 13.4894C25.4375 15.3876 24.9528 17.2473 24.0625 18.9021ZM36.4375 26.8125C38.7124 26.8125 40.5625 28.6626 40.5625 30.9375V33.6875H32.3125V30.9375C32.3125 28.6626 34.1626 26.8125 36.4375 26.8125ZM33.6875 41.25C33.6875 41.6288 33.3795 41.9375 33 41.9375C32.6205 41.9375 32.3125 41.6288 32.3125 41.25V37.8125H33.6875V41.25ZM39.875 41.9375C39.4955 41.9375 39.1875 41.6288 39.1875 41.25V37.8125H40.5625V41.25C40.5625 41.6288 40.2545 41.9375 39.875 41.9375ZM41.25 36.4375H31.625C31.2455 36.4375 30.9375 36.1288 30.9375 35.75C30.9375 35.3712 31.2455 35.0625 31.625 35.0625H41.25C41.6295 35.0625 41.9375 35.3712 41.9375 35.75C41.9375 36.1288 41.6295 36.4375 41.25 36.4375Z" fill="#FF4057"/>
<path d="M17.1875 13.0625H18.5625V14.4375H17.1875V13.0625Z" fill="#FF4057"/>
<path d="M19.9375 13.0625H21.3125V14.4375H19.9375V13.0625Z" fill="#FF4057"/>
<path d="M19.9375 15.8125H21.3125V17.1875H19.9375V15.8125Z" fill="#FF4057"/>
<path d="M17.1875 15.8125H18.5625V17.1875H17.1875V15.8125Z" fill="#FF4057"/>
<path d="M6.1875 13.0625H7.5625V14.4375H6.1875V13.0625Z" fill="#FF4057"/>
<path d="M8.9375 13.0625H10.3125V14.4375H8.9375V13.0625Z" fill="#FF4057"/>
<path d="M6.1875 15.8125H7.5625V17.1875H6.1875V15.8125Z" fill="#FF4057"/>
<path d="M8.9375 15.8125H10.3125V17.1875H8.9375V15.8125Z" fill="#FF4057"/>
<path d="M13.0625 21.3125H14.4375V22.6875H13.0625V21.3125Z" fill="#FF4057"/>
<path d="M13.0625 24.0625H14.4375V25.4375H13.0625V24.0625Z" fill="#FF4057"/>
<path d="M10.3125 24.0625H11.6875V25.4375H10.3125V24.0625Z" fill="#FF4057"/>
<path d="M10.3125 21.3125H11.6875V22.6875H10.3125V21.3125Z" fill="#FF4057"/>
<path d="M15.8125 24.0625H17.1875V25.4375H15.8125V24.0625Z" fill="#FF4057"/>
<path d="M15.8125 21.3125H17.1875V22.6875H15.8125V21.3125Z" fill="#FF4057"/>
</g>
<defs>
<clipPath id="clip0_99_1789">
<rect width="44" height="44" fill="white"/>
</clipPath>
</defs>
</svg>
